# xmcd CD database file
#
# Track frame offsets:
#	150
#	13217
#	26877
#	40550
#	52702
#	63967
#	77542
#	90687
#	101460
#	114125
#	126262
#	138537
#	151802
#	165365
#	179352
#	190812
#	204757
#	218770
#	232020
#	246510
#	259122
#
# Disc length: 3646 seconds
#
# Revision: 0
# Processed by: cddbd v1.5.2PL0 Copyright (c) Steve Scherf et al.
# Submitted via: CDex 1.70beta2
#
DISCID=0d0e3c15
DTITLE=Dizzy Gillespie - Dizzy Gillespie 1946 -1947
DYEAR=1900
DGENRE=Jazz
TTITLE0=One Bass Hit
TTITLE1=Oop Bop Sh'Bam
TTITLE2=A Hand Fulla Gimme
TTITLE3=That's Earl Brother
TTITLE4=Our Delight
TTITLE5=Good Dues Blues
TTITLE6=One Bass Hit 2
TTITLE7=Ray's Idea
TTITLE8=Things to Come
TTITLE9=He Beeped When He Should Have Bopped
TTITLE10=He Beeped When He Should Have Bopped
TTITLE11=For Hecklers Only
TTITLE12=Smokey Hollow Jump
TTITLE13=Boppin The Blues
TTITLE14=Moody speaks
TTITLE15=I Waithd For You
TTITLE16=Emanon
TTITLE17=Ow!
TTITLE18=Oopapada
TTITLE19=Two Bass Hit
TTITLE20=Stay On It
EXTD=
EXTT0=
EXTT1=
EXTT2=
EXTT3=
EXTT4=
EXTT5=
EXTT6=
EXTT7=
EXTT8=
EXTT9=
EXTT10=
EXTT11=
EXTT12=
EXTT13=
EXTT14=
EXTT15=
EXTT16=
EXTT17=
EXTT18=
EXTT19=
EXTT20=
PLAYORDER=
